<svg width="16" height="16" viewBox="0 0 16 16" fill="none" xmlns="http://www.w3.org/2000/svg">
<path d="M6.4935 15.247C7.49784 16.251 8.50217 16.251 9.50649 15.247L10.4762 14.2776C10.5455 14.2084 10.5974 14.1911 10.684 14.1911H12.0606C13.4805 14.1911 14.1905 13.4727 14.1905 12.0619V10.6858C14.1905 10.5992 14.2164 10.5386 14.2771 10.478L15.2468 9.50869C16.2511 8.50469 16.2511 7.50071 15.2468 6.49672L14.2771 5.52734C14.2078 5.4581 14.1905 5.40619 14.1905 5.31963V3.94347C14.1905 2.52404 13.4719 1.81432 12.0606 1.81432H10.684C10.5974 1.81432 10.5368 1.78835 10.4762 1.72777L9.50649 0.758407C8.4935 -0.254239 7.49784 -0.25424 6.4935 0.767057L5.52381 1.72777C5.46321 1.78835 5.4026 1.81432 5.31602 1.81432H3.93939C2.51948 1.81432 1.80952 2.51539 1.80952 3.94347V5.31963C1.80952 5.40619 1.78354 5.46677 1.72294 5.52734L0.753249 6.49672C-0.251083 7.50071 -0.251083 8.50469 0.753249 9.50869L1.72294 10.478C1.78354 10.5386 1.80952 10.5992 1.80952 10.6858V12.0619C1.80952 13.4814 2.52815 14.1911 3.93939 14.1911H5.31602C5.4026 14.1911 5.45455 14.2084 5.52381 14.2776L6.4935 15.247ZM6.9264 11.5859C6.62338 11.5859 6.31168 11.482 6.07793 11.2224L4.09523 8.99803C3.93939 8.82494 3.85282 8.5826 3.85282 8.36622C3.85282 7.78633 4.25974 7.37087 4.83983 7.37087C5.16017 7.37087 5.41125 7.49205 5.60173 7.70842L6.90909 9.17979L9.70563 5.05997C9.92208 4.76571 10.1905 4.62722 10.5368 4.62722C11.1429 4.62722 11.5671 5.0167 11.5671 5.57063C11.5671 5.75238 11.4892 5.99473 11.342 6.19379L7.82685 11.1531C7.5671 11.4907 7.27273 11.5859 6.9264 11.5859Z" fill="#0B70CA"/>
</svg>
