<svg width="69" height="69" viewBox="0 0 69 69" fill="none" xmlns="http://www.w3.org/2000/svg">
<path d="M34.18 68.3598C52.9433 68.3598 68.3601 52.918 68.3601 34.1798C68.3601 15.4163 52.9184 0 34.1547 0C15.4165 0 0 15.4163 0 34.1798C0 52.918 15.4418 68.3598 34.18 68.3598ZM34.18 60.7023C19.4988 60.7023 7.68288 48.861 7.68288 34.1798C7.68288 19.4986 19.4735 7.65734 34.1547 7.65734C48.8611 7.65734 60.6771 19.4986 60.7026 34.1798C60.7026 48.861 48.8611 60.7023 34.18 60.7023ZM34.18 51.1937C35.245 51.1937 36.1071 50.788 36.8678 49.9767L47.7706 38.7439C48.4047 38.0847 48.6581 37.4254 48.6581 36.5379C48.6581 34.9151 47.4414 33.7487 45.7424 33.7487C44.9056 33.7487 44.1196 34.0784 43.5871 34.6869L39.8598 38.6678L37.1467 42.167L37.4763 35.828V20.3354C37.4763 18.5097 36.0564 17.1912 34.18 17.1912C32.3036 17.1912 30.8837 18.5097 30.8837 20.3354V35.828L31.2133 42.1416L28.551 38.7439L24.7729 34.6869C24.2658 34.1037 23.4797 33.7487 22.6176 33.7487C20.9441 33.7487 19.727 34.9151 19.727 36.5379C19.727 37.4254 19.9806 38.0847 20.5891 38.7439L31.5176 49.9767C32.3036 50.8134 33.1404 51.1937 34.18 51.1937Z" fill="#FECC02"/>
</svg>
