<svg width="56" height="71" viewBox="0 0 56 71" fill="none" xmlns="http://www.w3.org/2000/svg">
<path d="M11.1888 70.1279H44.8595C52.0142 70.1279 55.9995 66.1426 55.9995 58.9252V31.6246H30.9896C27.2554 31.6246 25.3726 29.7418 25.3726 26.0075V0.87207H11.1888C4.00269 0.87207 0.0488281 4.85736 0.0488281 12.0747V58.9252C0.0488281 66.1426 4.00269 70.1279 11.1888 70.1279ZM32.5272 26.4468H55.7171C55.5916 24.8151 54.2736 23.2461 52.4221 21.3633L35.5397 4.35524C33.7824 2.56658 32.182 1.28003 30.5189 1.1231V24.5013C30.5502 25.8193 31.2092 26.4468 32.5272 26.4468ZM28.0084 62.4084C27.0043 62.4084 26.1884 62.0005 25.3726 61.2473L17.0568 53.622C16.3351 52.9944 16.0213 52.3354 16.0213 51.4254C16.0213 49.8564 17.2765 48.6953 18.9396 48.6953C19.6928 48.6953 20.4773 49.166 21.0421 49.6995L23.2387 51.9588L25.0587 53.9044L24.7136 49.7622V41.0072C24.7136 39.2185 26.2198 37.9633 28.0084 37.9633C29.8285 37.9633 31.3034 39.2185 31.3034 41.0072V49.7622L30.9896 53.9044L32.841 51.9588L35.0062 49.6995C35.5397 49.166 36.3242 48.6953 37.1087 48.6953C38.7404 48.6953 39.9957 49.8564 39.9957 51.4254C39.9957 52.3354 39.7132 52.963 38.9915 53.622L30.6444 61.2473C29.8285 62.0005 29.044 62.4084 28.0084 62.4084Z" fill="white"/>
</svg>
