<svg width="119" height="94" viewBox="0 0 119 94" fill="none" xmlns="http://www.w3.org/2000/svg">
<path d="M59.373 49.627C61.4889 49.627 63.7513 48.4225 66.1601 46.0137L109.128 2.75198C106.915 1.28712 103.513 0.554688 98.9234 0.554688H19.6757C15.1185 0.554688 11.7656 1.28712 9.61714 2.75198L52.5859 46.0137C55.0273 48.4225 57.2897 49.627 59.373 49.627ZM2.39064 83.0254L39.7929 45.5742L3.07424 9.24609C1.47917 11.5248 0.681641 15.0078 0.681641 19.6953V73.8945C0.681641 77.8984 1.25131 80.942 2.39064 83.0254ZM19.8222 93.0352H99.0704C104.181 93.0352 107.973 92.0586 110.447 90.1055L72.4101 52.0195L70.3593 54.0703C66.8437 57.5533 63.1816 59.2949 59.373 59.2949C55.5644 59.2949 51.886 57.5533 48.3378 54.0703L46.3359 52.1172L8.29884 90.1055C10.8379 92.0586 14.679 93.0352 19.8222 93.0352ZM116.404 83.0254C117.544 80.942 118.113 77.8984 118.113 73.8945V19.6953C118.113 15.0078 117.316 11.5248 115.72 9.24609L78.9531 45.5742L116.404 83.0254Z"/>
</svg>
