<svg width="11" height="13" viewBox="0 0 11 13" fill="none" xmlns="http://www.w3.org/2000/svg">
<path d="M2.12913 12.1197H5.6231C5.13858 11.5942 4.83149 10.8982 4.79055 10.1407H2.44305C2.10184 10.1407 1.97901 9.99055 1.97901 9.67664V2.44305C1.97901 2.12914 2.10184 1.97901 2.44305 1.97901H7.6021C7.94331 1.97901 8.06614 2.12914 8.06614 2.44305V6.85827C8.82362 6.8924 9.51969 7.19948 10.0451 7.68399V2.12914C10.0451 0.791606 9.25355 0 7.916 0H2.12913C0.791603 0 0 0.791606 0 2.12914V9.99056C0 11.3281 0.791603 12.1197 2.12913 12.1197ZM3.4189 4.13544H6.63308C6.85145 4.13544 7.01522 3.96484 7.01522 3.74646C7.01522 3.53491 6.85145 3.37113 6.63308 3.37113H3.4189C3.1937 3.37113 3.02992 3.53491 3.02992 3.74646C3.02992 3.96484 3.1937 4.13544 3.4189 4.13544ZM3.4189 5.77323H6.63308C6.85145 5.77323 7.01522 5.60262 7.01522 5.38425C7.01522 5.17271 6.85145 5.00893 6.63308 5.00893H3.4189C3.1937 5.00893 3.02992 5.17271 3.02992 5.38425C3.02992 5.60262 3.1937 5.77323 3.4189 5.77323ZM7.92966 12.1197C8.23675 12.1197 8.53019 12.0514 8.79633 11.9354L9.66298 12.7953C9.80629 12.9318 9.99055 13 10.1816 13C10.5842 13 10.8913 12.6929 10.8913 12.2835C10.8913 12.0992 10.8367 11.9218 10.6866 11.7717L9.84042 10.9255C9.9769 10.6457 10.052 10.3318 10.052 9.99738C10.052 8.8441 9.1034 7.88189 7.92966 7.88189C6.77638 7.88189 5.81417 8.8441 5.81417 9.99738C5.81417 11.1643 6.77638 12.1197 7.92966 12.1197ZM7.92966 11.0756C7.33596 11.0756 6.85145 10.6047 6.85145 9.99738C6.85145 9.40368 7.33596 8.92598 7.92966 8.92598C8.53018 8.92598 9.00788 9.40368 9.00788 9.99738C9.00788 10.6047 8.53018 11.0756 7.92966 11.0756Z" fill="#0B70CA"/>
</svg>
