<svg width="59" height="104" viewBox="0 0 59 104" fill="none" xmlns="http://www.w3.org/2000/svg">
<path d="M58.1972 51.7442C58.1972 51.1583 58.0996 50.6456 57.9043 50.2061C57.709 49.7666 57.3997 49.3516 56.9765 48.961L6.43943 1.50008C5.72329 0.783884 4.84439 0.425781 3.80272 0.425781C3.11912 0.425781 2.50063 0.58042 1.94723 0.889687C1.39389 1.19895 0.954459 1.63025 0.628925 2.18359C0.303392 2.73699 0.140625 3.35549 0.140625 4.03909C0.140625 5.01569 0.482425 5.86205 1.16603 6.57819L49.2617 51.7442L1.16603 96.8614C0.482425 97.5775 0.140625 98.4238 0.140625 99.4004C0.140625 100.117 0.303392 100.751 0.628925 101.305C0.954459 101.858 1.39389 102.289 1.94723 102.599C2.50063 102.908 3.11912 103.063 3.80272 103.063C4.84439 103.063 5.72329 102.704 6.43943 101.988L56.9765 54.5274C57.3997 54.1368 57.709 53.7136 57.9043 53.2579C58.0996 52.8022 58.1972 52.2976 58.1972 51.7442Z"/>
</svg>
