<svg width="48" height="86" viewBox="0 0 48 86" fill="none" xmlns="http://www.w3.org/2000/svg">
<path d="M47.9746 42.7461C47.9746 42.1276 47.8525 41.5498 47.6084 41.0127C47.3643 40.4756 47.0143 39.9791 46.5586 39.5234L7.8867 1.63278C7.00777 0.786449 5.93354 0.363281 4.664 0.363281C3.8502 0.363281 3.1015 0.558588 2.4179 0.949188C1.7343 1.33985 1.1972 1.86882 0.806602 2.53609C0.416002 3.20342 0.220703 3.96025 0.220703 4.80659C0.220703 6.01105 0.643869 7.06902 1.4902 7.98048L37.0371 42.7461L1.4902 77.5117C0.643869 78.4232 0.220703 79.4811 0.220703 80.6855C0.220703 81.5319 0.416002 82.2887 0.806602 82.956C1.1972 83.6234 1.7343 84.1523 2.4179 84.543C3.1015 84.9336 3.8502 85.1289 4.664 85.1289C5.93354 85.1289 7.00777 84.6894 7.8867 83.8105L46.5586 45.9688C47.0143 45.5131 47.3643 45.0166 47.6084 44.4795C47.8525 43.9424 47.9746 43.3646 47.9746 42.7461Z"/>
</svg>
