<svg width="66" height="88" viewBox="0 0 66 88" fill="none" xmlns="http://www.w3.org/2000/svg">
<path d="M8.5259 79.3184L52.2759 87.0332C60.2837 88.4492 65.0689 83.957 65.0689 75.168V27.9512C65.0689 19.6992 60.8696 16.8672 52.813 15.5L10.479 8.0293C4.5708 6.9551 0.615723 10.373 0.615723 16.2812V70.2363C0.615723 75.3633 3.3013 78.3906 8.5259 79.3184ZM10.2349 72.3848C8.5259 72.043 7.647 71.0664 7.647 69.2109V17.4531C7.647 15.6953 8.8677 14.7676 10.772 15.1094L52.4712 22.4336C56.0845 23.0684 58.0376 24.4844 58.0376 27.9023V74.3379C58.0376 78.3906 55.7427 80.4414 51.9341 79.7578L10.2349 72.3848ZM54.6196 20.627H61.6509V11.7891C61.6509 3.34181 56.0356 -0.710891 46.563 0.998009L6.5728 8.0293L9.2583 14.084L49.0532 7.54101C52.5689 7.00391 54.6196 8.46881 54.6196 11.4961V20.627ZM17.2173 31.9551L45.9282 37.0332C47.8813 37.3262 49.1509 36.1055 49.1509 34.2988C49.1509 32.6387 48.3696 31.8086 46.856 31.5156L18.3892 26.5352C16.436 26.1934 15.02 27.3164 15.02 29.123C15.02 30.6367 15.8013 31.7109 17.2173 31.9551ZM17.2173 47.043L45.9282 52.1211C47.8813 52.4141 49.1509 51.1934 49.1509 49.3867C49.1509 47.7266 48.3696 46.8965 46.856 46.6035L18.3892 41.623C16.436 41.2812 15.02 42.4043 15.02 44.2109C15.02 45.7246 15.8013 46.7988 17.2173 47.043Z" style="fill-opacity:1;"/>
</svg>
